<mxfile host="app.diagrams.net" agent="Mozilla/5.0 (Windows NT 10.0; Win64; x64) AppleWebKit/537.36 (KHTML, like Gecko) Chrome/129.0.0.0 Safari/537.36" version="24.7.17">
  <diagram id="R2lEEEUBdFMjLlhIrx00" name="Page-1">
    <mxGraphModel dx="1434" dy="746" grid="1" gridSize="10" guides="1" tooltips="1" connect="1" arrows="1" fold="1" page="1" pageScale="1" pageWidth="1169" pageHeight="827" math="0" shadow="0" extFonts="Permanent Marker^https://fonts.googleapis.com/css?family=Permanent+Marker">
      <root>
        <mxCell id="0" />
        <mxCell id="1" parent="0" />
        <mxCell id="um8FNvzlJI-G9SgZ8Cr9-4" value="items" style="rounded=1;arcSize=10;whiteSpace=wrap;html=1;align=center;" parent="1" vertex="1">
          <mxGeometry x="535" y="200" width="100" height="40" as="geometry" />
        </mxCell>
        <mxCell id="um8FNvzlJI-G9SgZ8Cr9-11" style="edgeStyle=orthogonalEdgeStyle;rounded=0;orthogonalLoop=1;jettySize=auto;html=1;exitX=0.5;exitY=1;exitDx=0;exitDy=0;entryX=0.25;entryY=0;entryDx=0;entryDy=0;curved=1;endArrow=none;endFill=0;" parent="1" source="um8FNvzlJI-G9SgZ8Cr9-5" target="um8FNvzlJI-G9SgZ8Cr9-4" edge="1">
          <mxGeometry relative="1" as="geometry" />
        </mxCell>
        <mxCell id="um8FNvzlJI-G9SgZ8Cr9-5" value="item_id" style="ellipse;whiteSpace=wrap;html=1;align=center;fontStyle=4;" parent="1" vertex="1">
          <mxGeometry x="435" y="110" width="100" height="40" as="geometry" />
        </mxCell>
        <mxCell id="um8FNvzlJI-G9SgZ8Cr9-13" style="edgeStyle=orthogonalEdgeStyle;rounded=0;orthogonalLoop=1;jettySize=auto;html=1;exitX=0.5;exitY=1;exitDx=0;exitDy=0;curved=1;endArrow=none;endFill=0;entryX=0.75;entryY=0;entryDx=0;entryDy=0;" parent="1" source="um8FNvzlJI-G9SgZ8Cr9-6" target="um8FNvzlJI-G9SgZ8Cr9-4" edge="1">
          <mxGeometry relative="1" as="geometry">
            <mxPoint x="585" y="200" as="targetPoint" />
          </mxGeometry>
        </mxCell>
        <mxCell id="um8FNvzlJI-G9SgZ8Cr9-6" value="title" style="ellipse;whiteSpace=wrap;html=1;align=center;" parent="1" vertex="1">
          <mxGeometry x="635" y="110" width="100" height="40" as="geometry" />
        </mxCell>
        <mxCell id="n3Ujuzyvks5ByngXWSv_-11" style="edgeStyle=orthogonalEdgeStyle;rounded=0;orthogonalLoop=1;jettySize=auto;html=1;exitX=0.5;exitY=0;exitDx=0;exitDy=0;entryX=0.5;entryY=1;entryDx=0;entryDy=0;endArrow=none;endFill=0;startArrow=ERmandOne;startFill=0;" edge="1" parent="1" source="um8FNvzlJI-G9SgZ8Cr9-15" target="n3Ujuzyvks5ByngXWSv_-1">
          <mxGeometry relative="1" as="geometry" />
        </mxCell>
        <mxCell id="um8FNvzlJI-G9SgZ8Cr9-15" value="category" style="rounded=1;arcSize=10;whiteSpace=wrap;html=1;align=center;" parent="1" vertex="1">
          <mxGeometry x="300" y="320" width="100" height="40" as="geometry" />
        </mxCell>
        <mxCell id="n3Ujuzyvks5ByngXWSv_-10" style="edgeStyle=orthogonalEdgeStyle;rounded=0;orthogonalLoop=1;jettySize=auto;html=1;exitX=0.5;exitY=0;exitDx=0;exitDy=0;endArrow=none;endFill=0;startArrow=ERmandOne;startFill=0;" edge="1" parent="1" source="um8FNvzlJI-G9SgZ8Cr9-16" target="n3Ujuzyvks5ByngXWSv_-2">
          <mxGeometry relative="1" as="geometry" />
        </mxCell>
        <mxCell id="um8FNvzlJI-G9SgZ8Cr9-16" value="company" style="rounded=1;arcSize=10;whiteSpace=wrap;html=1;align=center;" parent="1" vertex="1">
          <mxGeometry x="760" y="320" width="100" height="40" as="geometry" />
        </mxCell>
        <mxCell id="um8FNvzlJI-G9SgZ8Cr9-17" value="order" style="rounded=1;arcSize=10;whiteSpace=wrap;html=1;align=center;" parent="1" vertex="1">
          <mxGeometry x="535" y="440" width="100" height="40" as="geometry" />
        </mxCell>
        <mxCell id="um8FNvzlJI-G9SgZ8Cr9-25" style="edgeStyle=orthogonalEdgeStyle;rounded=0;orthogonalLoop=1;jettySize=auto;html=1;exitX=0.5;exitY=0;exitDx=0;exitDy=0;entryX=0;entryY=1;entryDx=0;entryDy=0;curved=1;endArrow=none;endFill=0;" parent="1" source="um8FNvzlJI-G9SgZ8Cr9-19" target="um8FNvzlJI-G9SgZ8Cr9-17" edge="1">
          <mxGeometry relative="1" as="geometry" />
        </mxCell>
        <mxCell id="um8FNvzlJI-G9SgZ8Cr9-19" value="order_id" style="ellipse;whiteSpace=wrap;html=1;align=center;fontStyle=4;" parent="1" vertex="1">
          <mxGeometry x="390" y="530" width="100" height="40" as="geometry" />
        </mxCell>
        <mxCell id="um8FNvzlJI-G9SgZ8Cr9-26" style="edgeStyle=orthogonalEdgeStyle;rounded=0;orthogonalLoop=1;jettySize=auto;html=1;exitX=0.5;exitY=0;exitDx=0;exitDy=0;entryX=1;entryY=1;entryDx=0;entryDy=0;curved=1;endArrow=none;endFill=0;" parent="1" source="um8FNvzlJI-G9SgZ8Cr9-21" target="um8FNvzlJI-G9SgZ8Cr9-17" edge="1">
          <mxGeometry relative="1" as="geometry" />
        </mxCell>
        <mxCell id="um8FNvzlJI-G9SgZ8Cr9-21" value="name" style="ellipse;whiteSpace=wrap;html=1;align=center;" parent="1" vertex="1">
          <mxGeometry x="680" y="530" width="100" height="40" as="geometry" />
        </mxCell>
        <mxCell id="um8FNvzlJI-G9SgZ8Cr9-30" style="edgeStyle=orthogonalEdgeStyle;rounded=0;orthogonalLoop=1;jettySize=auto;html=1;exitX=0.5;exitY=0;exitDx=0;exitDy=0;entryX=0;entryY=0.75;entryDx=0;entryDy=0;curved=1;endArrow=none;endFill=0;" parent="1" source="um8FNvzlJI-G9SgZ8Cr9-27" target="um8FNvzlJI-G9SgZ8Cr9-15" edge="1">
          <mxGeometry relative="1" as="geometry" />
        </mxCell>
        <mxCell id="um8FNvzlJI-G9SgZ8Cr9-27" value="category_id" style="ellipse;whiteSpace=wrap;html=1;align=center;fontStyle=4;" parent="1" vertex="1">
          <mxGeometry x="170" y="400" width="100" height="40" as="geometry" />
        </mxCell>
        <mxCell id="um8FNvzlJI-G9SgZ8Cr9-29" style="edgeStyle=orthogonalEdgeStyle;rounded=0;orthogonalLoop=1;jettySize=auto;html=1;exitX=0.5;exitY=1;exitDx=0;exitDy=0;entryX=0;entryY=0.25;entryDx=0;entryDy=0;curved=1;endArrow=none;endFill=0;" parent="1" source="um8FNvzlJI-G9SgZ8Cr9-28" target="um8FNvzlJI-G9SgZ8Cr9-15" edge="1">
          <mxGeometry relative="1" as="geometry" />
        </mxCell>
        <mxCell id="um8FNvzlJI-G9SgZ8Cr9-28" value="title" style="ellipse;whiteSpace=wrap;html=1;align=center;" parent="1" vertex="1">
          <mxGeometry x="170" y="250" width="100" height="40" as="geometry" />
        </mxCell>
        <mxCell id="um8FNvzlJI-G9SgZ8Cr9-34" style="edgeStyle=orthogonalEdgeStyle;rounded=0;orthogonalLoop=1;jettySize=auto;html=1;exitX=0.5;exitY=0;exitDx=0;exitDy=0;entryX=1;entryY=0.75;entryDx=0;entryDy=0;curved=1;endArrow=none;endFill=0;" parent="1" source="um8FNvzlJI-G9SgZ8Cr9-31" target="um8FNvzlJI-G9SgZ8Cr9-16" edge="1">
          <mxGeometry relative="1" as="geometry" />
        </mxCell>
        <mxCell id="um8FNvzlJI-G9SgZ8Cr9-31" value="company_id" style="ellipse;whiteSpace=wrap;html=1;align=center;fontStyle=4;" parent="1" vertex="1">
          <mxGeometry x="910" y="395" width="100" height="40" as="geometry" />
        </mxCell>
        <mxCell id="um8FNvzlJI-G9SgZ8Cr9-35" style="edgeStyle=orthogonalEdgeStyle;rounded=0;orthogonalLoop=1;jettySize=auto;html=1;exitX=0.5;exitY=1;exitDx=0;exitDy=0;entryX=1;entryY=0.25;entryDx=0;entryDy=0;curved=1;endArrow=none;endFill=0;" parent="1" source="um8FNvzlJI-G9SgZ8Cr9-32" target="um8FNvzlJI-G9SgZ8Cr9-16" edge="1">
          <mxGeometry relative="1" as="geometry" />
        </mxCell>
        <mxCell id="um8FNvzlJI-G9SgZ8Cr9-32" value="name" style="ellipse;whiteSpace=wrap;html=1;align=center;" parent="1" vertex="1">
          <mxGeometry x="910" y="245" width="100" height="40" as="geometry" />
        </mxCell>
        <mxCell id="n3Ujuzyvks5ByngXWSv_-12" style="edgeStyle=orthogonalEdgeStyle;rounded=0;orthogonalLoop=1;jettySize=auto;html=1;exitX=1;exitY=0.5;exitDx=0;exitDy=0;entryX=0;entryY=0.5;entryDx=0;entryDy=0;endArrow=ERoneToMany;endFill=0;" edge="1" parent="1" source="n3Ujuzyvks5ByngXWSv_-1" target="um8FNvzlJI-G9SgZ8Cr9-4">
          <mxGeometry relative="1" as="geometry" />
        </mxCell>
        <mxCell id="n3Ujuzyvks5ByngXWSv_-1" value="belongs" style="shape=rhombus;perimeter=rhombusPerimeter;whiteSpace=wrap;html=1;align=center;" vertex="1" parent="1">
          <mxGeometry x="290" y="190" width="120" height="60" as="geometry" />
        </mxCell>
        <mxCell id="n3Ujuzyvks5ByngXWSv_-13" style="edgeStyle=orthogonalEdgeStyle;rounded=0;orthogonalLoop=1;jettySize=auto;html=1;exitX=0;exitY=0.5;exitDx=0;exitDy=0;entryX=1;entryY=0.5;entryDx=0;entryDy=0;endArrow=ERoneToMany;endFill=0;" edge="1" parent="1" source="n3Ujuzyvks5ByngXWSv_-2" target="um8FNvzlJI-G9SgZ8Cr9-4">
          <mxGeometry relative="1" as="geometry" />
        </mxCell>
        <mxCell id="n3Ujuzyvks5ByngXWSv_-2" value="produce" style="shape=rhombus;perimeter=rhombusPerimeter;whiteSpace=wrap;html=1;align=center;" vertex="1" parent="1">
          <mxGeometry x="750" y="190" width="120" height="60" as="geometry" />
        </mxCell>
        <mxCell id="n3Ujuzyvks5ByngXWSv_-5" style="edgeStyle=orthogonalEdgeStyle;rounded=0;orthogonalLoop=1;jettySize=auto;html=1;exitX=0.5;exitY=0;exitDx=0;exitDy=0;entryX=0.5;entryY=1;entryDx=0;entryDy=0;endArrow=ERzeroToMany;endFill=0;" edge="1" parent="1" source="n3Ujuzyvks5ByngXWSv_-3" target="um8FNvzlJI-G9SgZ8Cr9-4">
          <mxGeometry relative="1" as="geometry" />
        </mxCell>
        <mxCell id="n3Ujuzyvks5ByngXWSv_-6" style="edgeStyle=orthogonalEdgeStyle;rounded=0;orthogonalLoop=1;jettySize=auto;html=1;exitX=0.5;exitY=1;exitDx=0;exitDy=0;entryX=0.5;entryY=0;entryDx=0;entryDy=0;endArrow=ERzeroToMany;endFill=0;" edge="1" parent="1" source="n3Ujuzyvks5ByngXWSv_-3" target="um8FNvzlJI-G9SgZ8Cr9-17">
          <mxGeometry relative="1" as="geometry" />
        </mxCell>
        <mxCell id="n3Ujuzyvks5ByngXWSv_-3" value="have" style="shape=rhombus;perimeter=rhombusPerimeter;whiteSpace=wrap;html=1;align=center;" vertex="1" parent="1">
          <mxGeometry x="525" y="310" width="120" height="60" as="geometry" />
        </mxCell>
        <mxCell id="n3Ujuzyvks5ByngXWSv_-15" style="edgeStyle=orthogonalEdgeStyle;rounded=0;orthogonalLoop=1;jettySize=auto;html=1;exitX=0.5;exitY=0;exitDx=0;exitDy=0;entryX=0.25;entryY=1;entryDx=0;entryDy=0;endArrow=none;endFill=0;curved=1;" edge="1" parent="1" source="n3Ujuzyvks5ByngXWSv_-14" target="um8FNvzlJI-G9SgZ8Cr9-17">
          <mxGeometry relative="1" as="geometry" />
        </mxCell>
        <mxCell id="n3Ujuzyvks5ByngXWSv_-14" value="time" style="ellipse;whiteSpace=wrap;html=1;align=center;" vertex="1" parent="1">
          <mxGeometry x="470" y="580" width="100" height="40" as="geometry" />
        </mxCell>
        <mxCell id="n3Ujuzyvks5ByngXWSv_-17" style="edgeStyle=orthogonalEdgeStyle;rounded=0;orthogonalLoop=1;jettySize=auto;html=1;exitX=0.5;exitY=0;exitDx=0;exitDy=0;entryX=0.75;entryY=1;entryDx=0;entryDy=0;curved=1;endArrow=none;endFill=0;" edge="1" parent="1" source="n3Ujuzyvks5ByngXWSv_-16" target="um8FNvzlJI-G9SgZ8Cr9-17">
          <mxGeometry relative="1" as="geometry" />
        </mxCell>
        <mxCell id="n3Ujuzyvks5ByngXWSv_-16" value="shipping address" style="ellipse;whiteSpace=wrap;html=1;align=center;" vertex="1" parent="1">
          <mxGeometry x="600" y="580" width="100" height="40" as="geometry" />
        </mxCell>
      </root>
    </mxGraphModel>
  </diagram>
</mxfile>
